<svg xmlns="http://www.w3.org/2000/svg" viewBox="0 0 24 24" role="img" aria-hidden="true">
  <rect width="24" height="24" rx="2" fill="#ff0000"/>
  <path fill="#fff" d="M12.1 4.5c-.7 0-1 .5-1 1.3 0 1.4.7 3.5 1.7 5.7-.8 1.6-1.7 3.2-2.6 4.5-2.6.9-4.3 1.9-4.3 3.1 0 .6.5 1 1.1 1 1.4 0 3.1-1.8 4.5-3.7 1.7-.5 3.7-.8 5.2-.8 1 1 2 1.6 2.8 1.6.7 0 1.1-.4 1.1-1 0-1.3-1.9-1.8-3.7-1.9-1.1-1.3-2.1-3-2.9-4.6.7-1.8 1.1-3.4 1.1-4.3 0-.7-.5-1.1-1.2-1.1l-1.8.2Zm.2 1.2h.9c.3 0 .4.2.4.5 0 .6-.2 1.5-.6 2.5-.5-1.2-.8-2.4-.8-2.9 0-.1 0-.1.1-.1Zm1.3 5.5c.6 1.1 1.3 2.2 2 3.1-1.1.1-2.2.3-3.3.6.5-.9.9-1.7 1.3-2.5v-1.2ZM8 18.4c.3-.3.8-.6 1.5-.9-.8.9-1.5 1.5-1.9 1.5-.1 0-.1 0-.1-.1s.2-.3.5-.5Zm10.1-2.7c.8.1 1.3.3 1.3.5 0 .1-.1.1-.2.1-.3 0-.7-.2-1.1-.6Z"/>
</svg>
